<svg xmlns="http://www.w3.org/2000/svg" viewBox="0 0 208.28 208.28"><defs><style>.cls-1{fill:#a0ee09;}</style></defs><g id="图层_2" data-name="图层 2"><g id="图层_1-2" data-name="图层 1"><rect class="cls-1" width="208.28" height="208.28"/><path d="M145.9,71.15a53.09,53.09,0,0,1,11.18,26.78l.06.5a1.54,1.54,0,0,0,1.54,1.38H168a1.54,1.54,0,0,0,1.55-1.67,1.49,1.49,0,0,1,0-.21,65.09,65.09,0,0,0-8.83-27.71c-1-1.71-2.09-3.37-3.24-5a64.32,64.32,0,0,0-4.76-5.88,65.19,65.19,0,0,0-8.56-7.88c-.21-.17-.43-.34-.66-.5a65.1,65.1,0,0,0-13.57-7.85,64.44,64.44,0,0,0-10.78-3.53,65.33,65.33,0,0,0-13.29-1.7l-1.7,0h-1.33a65.78,65.78,0,0,0-13.33,1.63A65.41,65.41,0,0,0,64.8,51l-.61.46A65.6,65.6,0,0,0,51.27,64.62q-1.87,2.55-3.51,5.28a65.3,65.3,0,0,0-9,28,1.49,1.49,0,0,1,0,.21,1.54,1.54,0,0,0,1.55,1.67H49.6a1.54,1.54,0,0,0,1.54-1.38l.06-.5c0-.2,0-.41.07-.61a52.68,52.68,0,0,1,4-14.39h0A53.55,53.55,0,0,1,85.09,54.5a52.13,52.13,0,0,1,11.33-3h0a.82.82,0,0,1,.84,1.22l-.07.11-6.52,11.3L81.1,80.76,74.7,91.84l-3.51,6.09L70.1,99.81,68,103.42a1.62,1.62,0,0,0-.18.55h0v.34h0a1.62,1.62,0,0,0,.18.55l2.09,3.61,1.09,1.88,3.51,6.09,6.4,11.08,9.57,16.58,6.52,11.29.07.12a.82.82,0,0,1-.84,1.22h0a52.13,52.13,0,0,1-11.33-2.95,53.51,53.51,0,0,1-29.81-28.42h0a52.68,52.68,0,0,1-4-14.39c0-.2-.05-.41-.07-.61l-.06-.5a1.54,1.54,0,0,0-1.54-1.38H40.28a1.54,1.54,0,0,0-1.55,1.67,1.49,1.49,0,0,1,0,.21,65.3,65.3,0,0,0,9,28q1.64,2.73,3.51,5.28a66.6,66.6,0,0,0,4.54,5.5,65.51,65.51,0,0,0,8.38,7.67l.61.46a65.41,65.41,0,0,0,24.68,11.46,65.78,65.78,0,0,0,13.33,1.63h1.33l1.7,0a65.33,65.33,0,0,0,13.29-1.7,64.44,64.44,0,0,0,10.78-3.53,65.1,65.1,0,0,0,13.57-7.85c.23-.16.45-.33.66-.5a65.19,65.19,0,0,0,8.56-7.88,64.32,64.32,0,0,0,4.76-5.88c1.15-1.6,2.24-3.26,3.24-5a65.09,65.09,0,0,0,8.83-27.71,1.49,1.49,0,0,1,0-.21,1.54,1.54,0,0,0-1.55-1.67h-9.32a1.54,1.54,0,0,0-1.54,1.38l-.06.5a53.31,53.31,0,0,1-43.81,46.16,1.56,1.56,0,0,1-1.6-.75l-.21-.37L104.33,143l-.19-.33-6.33-11-9.57-16.58-1.44-2.49a1.55,1.55,0,0,1,1.34-2.32h21.55a.84.84,0,0,0,.71-.41l.85-1.47,2.24-3.9a.78.78,0,0,0,.13-.43.84.84,0,0,0-.13-.44l-2.24-3.89-.85-1.47a.84.84,0,0,0-.71-.41H88.14a1.55,1.55,0,0,1-1.34-2.32l1.44-2.49,9.57-16.58,6.33-11,.19-.33,7.13-12.36.21-.37a1.56,1.56,0,0,1,1.6-.75A53.5,53.5,0,0,1,145.9,71.15Z"/><path d="M126.37,104.86l-2.09,3.61-1.09,1.88-2.93,5.08-9.08,15.73a1.58,1.58,0,0,0,0,1.55l5.35,9.26a1.55,1.55,0,0,0,2.68,0l8.19-14.18L134,116.44l3.52-6.09,1.08-1.88,2.09-3.61a1.37,1.37,0,0,0,.18-.55h0V104h0a1.37,1.37,0,0,0-.18-.55l-2.09-3.61-1.08-1.88L134,91.84,127.4,80.49l-8.19-14.18a1.55,1.55,0,0,0-2.68,0l-5.35,9.26a1.58,1.58,0,0,0,0,1.55l9.08,15.73,2.93,5.08,1.09,1.88,2.09,3.61a1.74,1.74,0,0,1,.2.66v.12A1.74,1.74,0,0,1,126.37,104.86Z"/></g></g></svg>